<?xml version="1.0" standalone="no"?><!DOCTYPE svg PUBLIC "-//W3C//DTD SVG 1.1//EN" "http://www.w3.org/Graphics/SVG/1.1/DTD/svg11.dtd"><svg t="1486137309049" class="icon" style="" viewBox="0 0 1024 1024" version="1.1" xmlns="http://www.w3.org/2000/svg" p-id="6097" xmlns:xlink="http://www.w3.org/1999/xlink" width="200" height="200"><defs><style type="text/css"></style></defs><path d="M227.1 222.5h212.4v603.7H227.1z" fill="#D39E33" p-id="6098"></path><path d="M439.5 839.7H227.1c-7.5 0-13.5-6-13.5-13.5V222.5c0-7.5 6-13.5 13.5-13.5h212.4c7.5 0 13.5 6 13.5 13.5v603.7c-0.1 7.5-6.1 13.5-13.5 13.5z m-198.9-27H426V236H240.6v576.7z" fill="#111111" p-id="6099"></path><path d="M435.8 987.6h-205c-2 0-3.7-1.6-3.7-3.7V826.2h212.4v157.7c0 2-1.7 3.7-3.7 3.7z" fill="#845A3D" p-id="6100"></path><path d="M435.6 1001H230.9c-9.5 0-17.3-7.8-17.3-17.3V826.2c0-7.5 6-13.5 13.5-13.5h212.4c7.5 0 13.5 6 13.5 13.5v157.5c-0.1 9.6-7.8 17.3-17.4 17.3z m-195-26.9H426V839.7H240.6v134.4z" fill="#141414" p-id="6101"></path><path d="M439.5 222.5H227.1l95.5-146h21.3z" fill="#845A3D" p-id="6102"></path><path d="M439.5 236H227.1c-5 0-9.5-2.7-11.9-7.1-2.4-4.4-2.1-9.7 0.6-13.8l95.6-146c2.5-3.8 6.7-6.1 11.3-6.1h21.2c4.6 0 8.8 2.3 11.3 6.1l95.6 146c2.7 4.1 2.9 9.4 0.6 13.8-2.4 4.4-7 7.1-11.9 7.1zM252 209h162.5L336.6 90H330l-78 119z" fill="#141414" p-id="6103"></path><path d="M368.2 115.9h-69.9l31.5-62h7z" fill="#3F3025" p-id="6104"></path><path d="M368.2 129.4h-70c-4.7 0-9-2.4-11.5-6.4s-2.7-9-0.5-13.2l31.5-62.1c2.3-4.5 7-7.4 12-7.4h7c5.1 0 9.7 2.9 12 7.4l31.5 62.1c2.1 4.2 1.9 9.2-0.5 13.2s-6.8 6.4-11.5 6.4z m-47.9-27h26l-13-25.6-13 25.6z" fill="#141414" p-id="6105"></path><path d="M220.6 801.2h225.3v50H220.6z" fill="#FAFCFB" p-id="6106"></path><path d="M445.9 864.7H220.6c-7.5 0-13.5-6-13.5-13.5v-50c0-7.5 6-13.5 13.5-13.5h225.3c7.5 0 13.5 6 13.5 13.5v50c0 7.5-6 13.5-13.5 13.5z m-211.8-26.9h198.3v-23.1H234.1v23.1z" fill="#0F0F0F" p-id="6107"></path><path d="M298.3 222.5v331.8" fill="#845A3D" p-id="6108"></path><path d="M298.3 567.8c-7.5 0-13.5-6-13.5-13.5V222.5c0-7.5 6-13.5 13.5-13.5s13.5 6 13.5 13.5v331.8c0 7.5-6.1 13.5-13.5 13.5z" fill="#141414" p-id="6109"></path><path d="M298.3 635.3v165.9" fill="#845A3D" p-id="6110"></path><path d="M298.3 814.7c-7.5 0-13.5-6-13.5-13.5V635.3c0-7.5 6-13.5 13.5-13.5s13.5 6 13.5 13.5v165.9c0 7.5-6.1 13.5-13.5 13.5z" fill="#141414" p-id="6111"></path><path d="M758.7 987.6h-148c-21.4 0-38.8-17.4-38.8-38.8V64.9c0-21.4 17.4-38.8 38.8-38.8h148c21.4 0 38.8 17.4 38.8 38.8v883.9c0 21.4-17.4 38.8-38.8 38.8z" fill="#FAFCFB" p-id="6112"></path><path d="M758.7 1001h-148c-28.9 0-52.3-23.5-52.3-52.3V64.9c0-28.9 23.5-52.3 52.3-52.3h148c28.9 0 52.3 23.5 52.3 52.3v883.9c0 28.8-23.5 52.2-52.3 52.2z m-148-961.5c-14 0-25.3 11.4-25.3 25.3v883.9c0 14 11.4 25.3 25.3 25.3h148c14 0 25.3-11.4 25.3-25.3V64.9c0-14-11.4-25.3-25.3-25.3h-148z" fill="#0F0F0F" p-id="6113"></path><path d="M659.5 104.4h-87.6" fill="#FAFCFB" p-id="6114"></path><path d="M659.5 117.9h-87.6c-7.5 0-13.5-6-13.5-13.5s6-13.5 13.5-13.5h87.6c7.5 0 13.5 6 13.5 13.5s-6.1 13.5-13.5 13.5z" fill="#0F0F0F" p-id="6115"></path><path d="M659.5 246.4h-87.6" fill="#FAFCFB" p-id="6116"></path><path d="M659.5 259.9h-87.6c-7.5 0-13.5-6-13.5-13.5s6-13.5 13.5-13.5h87.6c7.5 0 13.5 6 13.5 13.5s-6.1 13.5-13.5 13.5z" fill="#0F0F0F" p-id="6117"></path><path d="M659.5 388.4h-87.6" fill="#FAFCFB" p-id="6118"></path><path d="M659.5 401.9h-87.6c-7.5 0-13.5-6-13.5-13.5s6-13.5 13.5-13.5h87.6c7.5 0 13.5 6 13.5 13.5s-6.1 13.5-13.5 13.5z" fill="#0F0F0F" p-id="6119"></path><path d="M659.5 530.5h-87.6" fill="#FAFCFB" p-id="6120"></path><path d="M659.5 544h-87.6c-7.5 0-13.5-6-13.5-13.5s6-13.5 13.5-13.5h87.6c7.5 0 13.5 6 13.5 13.5s-6.1 13.5-13.5 13.5z" fill="#0F0F0F" p-id="6121"></path><path d="M659.5 672.5h-87.6" fill="#FAFCFB" p-id="6122"></path><path d="M659.5 686h-87.6c-7.5 0-13.5-6-13.5-13.5s6-13.5 13.5-13.5h87.6c7.5 0 13.5 6 13.5 13.5s-6.1 13.5-13.5 13.5z" fill="#0F0F0F" p-id="6123"></path><path d="M659.5 814.5h-87.6" fill="#FAFCFB" p-id="6124"></path><path d="M659.5 828h-87.6c-7.5 0-13.5-6-13.5-13.5s6-13.5 13.5-13.5h87.6c7.5 0 13.5 6 13.5 13.5s-6.1 13.5-13.5 13.5z" fill="#0F0F0F" p-id="6125"></path><path d="M627.6 151.8h-55.7" fill="#FAFCFB" p-id="6126"></path><path d="M627.6 165.2h-55.7c-7.5 0-13.5-6-13.5-13.5s6-13.5 13.5-13.5h55.7c7.5 0 13.5 6 13.5 13.5s-6 13.5-13.5 13.5z" fill="#0F0F0F" p-id="6127"></path><path d="M627.6 341.1h-55.7" fill="#FAFCFB" p-id="6128"></path><path d="M627.6 354.6h-55.7c-7.5 0-13.5-6-13.5-13.5s6-13.5 13.5-13.5h55.7c7.5 0 13.5 6 13.5 13.5s-6 13.5-13.5 13.5z" fill="#0F0F0F" p-id="6129"></path><path d="M627.6 435.8h-55.7" fill="#FAFCFB" p-id="6130"></path><path d="M627.6 449.3h-55.7c-7.5 0-13.5-6-13.5-13.5s6-13.5 13.5-13.5h55.7c7.5 0 13.5 6 13.5 13.5 0 7.4-6 13.5-13.5 13.5z" fill="#0F0F0F" p-id="6131"></path><path d="M627.6 483.1h-55.7" fill="#FAFCFB" p-id="6132"></path><path d="M627.6 496.6h-55.7c-7.5 0-13.5-6-13.5-13.5s6-13.5 13.5-13.5h55.7c7.5 0 13.5 6 13.5 13.5s-6 13.5-13.5 13.5z" fill="#0F0F0F" p-id="6133"></path><path d="M627.6 577.8h-55.7" fill="#FAFCFB" p-id="6134"></path><path d="M627.6 591.3h-55.7c-7.5 0-13.5-6-13.5-13.5s6-13.5 13.5-13.5h55.7c7.5 0 13.5 6 13.5 13.5s-6 13.5-13.5 13.5z" fill="#0F0F0F" p-id="6135"></path><path d="M627.6 625.1h-55.7" fill="#FAFCFB" p-id="6136"></path><path d="M627.6 638.6h-55.7c-7.5 0-13.5-6-13.5-13.5s6-13.5 13.5-13.5h55.7c7.5 0 13.5 6 13.5 13.5s-6 13.5-13.5 13.5z" fill="#0F0F0F" p-id="6137"></path><path d="M627.6 719.8h-55.7" fill="#FAFCFB" p-id="6138"></path><path d="M627.6 733.3h-55.7c-7.5 0-13.5-6-13.5-13.5s6-13.5 13.5-13.5h55.7c7.5 0 13.5 6 13.5 13.5s-6 13.5-13.5 13.5z" fill="#0F0F0F" p-id="6139"></path><path d="M627.6 767.2h-55.7" fill="#FAFCFB" p-id="6140"></path><path d="M627.6 780.6h-55.7c-7.5 0-13.5-6-13.5-13.5s6-13.5 13.5-13.5h55.7c7.5 0 13.5 6 13.5 13.5s-6 13.5-13.5 13.5z" fill="#0F0F0F" p-id="6141"></path><path d="M627.6 861.8h-55.7" fill="#FAFCFB" p-id="6142"></path><path d="M627.6 875.3h-55.7c-7.5 0-13.5-6-13.5-13.5s6-13.5 13.5-13.5h55.7c7.5 0 13.5 6 13.5 13.5s-6 13.5-13.5 13.5z" fill="#0F0F0F" p-id="6143"></path><path d="M627.6 909.2h-55.7" fill="#FAFCFB" p-id="6144"></path><path d="M627.6 922.7h-55.7c-7.5 0-13.5-6-13.5-13.5s6-13.5 13.5-13.5h55.7c7.5 0 13.5 6 13.5 13.5 0 7.4-6 13.5-13.5 13.5z" fill="#0F0F0F" p-id="6145"></path><path d="M627.6 199.1h-55.7" fill="#FAFCFB" p-id="6146"></path><path d="M627.6 212.6h-55.7c-7.5 0-13.5-6-13.5-13.5s6-13.5 13.5-13.5h55.7c7.5 0 13.5 6 13.5 13.5 0 7.4-6 13.5-13.5 13.5z" fill="#0F0F0F" p-id="6147"></path><path d="M627.6 293.8h-55.7" fill="#FAFCFB" p-id="6148"></path><path d="M627.6 307.3h-55.7c-7.5 0-13.5-6-13.5-13.5s6-13.5 13.5-13.5h55.7c7.5 0 13.5 6 13.5 13.5 0 7.4-6 13.5-13.5 13.5z" fill="#0F0F0F" p-id="6149"></path></svg>